<svg width="58" height="59" viewBox="0 0 58 59" fill="none" xmlns="http://www.w3.org/2000/svg">
<g opacity="0.6" filter="url(#filter0_d_613_12751)">
<circle cx="26" cy="26" r="26" transform="matrix(-1 0 0 1 55 3)" fill="white"/>
</g>
<path d="M33.802 21.964C34.0567 22.2153 34.1997 22.5562 34.1997 22.9116C34.1997 23.267 34.0567 23.6079 33.802 23.8592L27.0784 30.4939L33.802 37.1286C34.0494 37.3814 34.1863 37.72 34.1833 38.0714C34.1802 38.4228 34.0373 38.759 33.7855 39.0075C33.5336 39.256 33.1929 39.397 32.8368 39.4001C32.4807 39.4031 32.1375 39.268 31.8814 39.0239L24.1974 31.4415C23.9428 31.1902 23.7997 30.8493 23.7997 30.4939C23.7997 30.1385 23.9428 29.7976 24.1974 29.5463L31.8814 21.964C32.1361 21.7127 32.4815 21.5715 32.8417 21.5715C33.2019 21.5715 33.5473 21.7127 33.802 21.964Z" fill="black"/>
<defs>
<filter id="filter0_d_613_12751" x="0.0285711" y="0.771428" width="57.9429" height="57.9429" filterUnits="userSpaceOnUse" color-interpolation-filters="sRGB">
<feFlood flood-opacity="0" result="BackgroundImageFix"/>
<feColorMatrix in="SourceAlpha" type="matrix" values="0 0 0 0 0 0 0 0 0 0 0 0 0 0 0 0 0 0 127 0" result="hardAlpha"/>
<feOffset dy="0.742857"/>
<feGaussianBlur stdDeviation="1.48571"/>
<feComposite in2="hardAlpha" operator="out"/>
<feColorMatrix type="matrix" values="0 0 0 0 0 0 0 0 0 0 0 0 0 0 0 0 0 0 0.25 0"/>
<feBlend mode="normal" in2="BackgroundImageFix" result="effect1_dropShadow_613_12751"/>
<feBlend mode="normal" in="SourceGraphic" in2="effect1_dropShadow_613_12751" result="shape"/>
</filter>
</defs>
</svg>
