<svg width="58" height="59" viewBox="0 0 58 59" fill="none" xmlns="http://www.w3.org/2000/svg">
<g opacity="0.6" filter="url(#filter0_d_613_12748)">
<circle cx="29" cy="29" r="26" fill="white"/>
</g>
<path d="M24.1975 21.9638C23.9429 22.2152 23.7998 22.5561 23.7998 22.9115C23.7998 23.2669 23.9429 23.6077 24.1975 23.8591L30.9211 30.4938L24.1975 37.1285C23.9501 37.3813 23.8132 37.7199 23.8163 38.0713C23.8194 38.4227 23.9622 38.7589 24.214 39.0074C24.4659 39.2559 24.8066 39.3969 25.1627 39.3999C25.5189 39.403 25.862 39.2679 26.1181 39.0237L33.8021 31.4414C34.0568 31.1901 34.1998 30.8492 34.1998 30.4938C34.1998 30.1384 34.0568 29.7975 33.8021 29.5462L26.1181 21.9638C25.8634 21.7126 25.518 21.5714 25.1578 21.5714C24.7976 21.5714 24.4522 21.7126 24.1975 21.9638Z" fill="black"/>
<defs>
<filter id="filter0_d_613_12748" x="0.0285714" y="0.771429" width="57.9429" height="57.9429" filterUnits="userSpaceOnUse" color-interpolation-filters="sRGB">
<feFlood flood-opacity="0" result="BackgroundImageFix"/>
<feColorMatrix in="SourceAlpha" type="matrix" values="0 0 0 0 0 0 0 0 0 0 0 0 0 0 0 0 0 0 127 0" result="hardAlpha"/>
<feOffset dy="0.742857"/>
<feGaussianBlur stdDeviation="1.48571"/>
<feComposite in2="hardAlpha" operator="out"/>
<feColorMatrix type="matrix" values="0 0 0 0 0 0 0 0 0 0 0 0 0 0 0 0 0 0 0.25 0"/>
<feBlend mode="normal" in2="BackgroundImageFix" result="effect1_dropShadow_613_12748"/>
<feBlend mode="normal" in="SourceGraphic" in2="effect1_dropShadow_613_12748" result="shape"/>
</filter>
</defs>
</svg>
